<?xml version="1.0" encoding="UTF-8" standalone="no"?>
<svg
   xmlns:dc="http://purl.org/dc/elements/1.1/"
   xmlns:cc="http://creativecommons.org/ns#"
   xmlns:rdf="http://www.w3.org/1999/02/22-rdf-syntax-ns#"
   xmlns:svg="http://www.w3.org/2000/svg"
   xmlns="http://www.w3.org/2000/svg"
   xmlns:sodipodi="http://sodipodi.sourceforge.net/DTD/sodipodi-0.dtd"
   xmlns:inkscape="http://www.inkscape.org/namespaces/inkscape"
   version="1.1"
   width="481.01276"
   height="375.99191"
   style="fill:none"
   id="svg8"
   sodipodi:docname="dotgrid-21A11-676489.svg"
   inkscape:version="0.92.2 5c3e80d, 2017-08-06">
  <metadata
     id="metadata14">
    <rdf:RDF>
      <cc:Work
         rdf:about="">
        <dc:format>image/svg+xml</dc:format>
        <dc:type
           rdf:resource="http://purl.org/dc/dcmitype/StillImage" />
      </cc:Work>
    </rdf:RDF>
  </metadata>
  <defs
     id="defs12" />
  <sodipodi:namedview
     pagecolor="#ffffff"
     bordercolor="#666666"
     borderopacity="1"
     objecttolerance="10"
     gridtolerance="10"
     guidetolerance="10"
     inkscape:pageopacity="0"
     inkscape:pageshadow="2"
     inkscape:window-width="1757"
     inkscape:window-height="960"
     id="namedview10"
     showgrid="false"
     inkscape:zoom="1.1682331"
     inkscape:cx="153.65314"
     inkscape:cy="188"
     inkscape:window-x="0"
     inkscape:window-y="0"
     inkscape:window-maximized="0"
     inkscape:current-layer="svg8" />
  <path
     d="m 0.50637471,135.4919 a 240,240 0 0 0 239.99999529,240 240,240 0 0 0 240,-240 m -479.99999529,0 q 119.99999529,-59.999995 239.99999529,0 120,60 240,0 m -479.99999529,-15 q 119.99999529,-59.999995 239.99999529,0 120,60 240,0 m -479.99999529,0 v 0 -15 q 119.99999529,-59.999995 239.99999529,0 120,60 240,0 v 0 15 M 0.50637471,90.491905 q 119.99999529,-60 239.99999529,0 120,59.999995 240,0 m -479.99999529,0 v 0 -60 m 479.99999529,60 v 0 -60 m -479.99999529,0 q 119.99999529,-60 239.99999529,0 120,60 240,0"
     style="display:none;fill:none;stroke:#000000;stroke-width:1;stroke-linecap:round;stroke-linejoin:round"
     id="path6"
     inkscape:connector-curvature="0" />
  <path
     style="fill:#ffffff;stroke-width:0.85599357"
     d="M 343.65569,119.01949 C 308.74807,116.26622 278.21899,107.52276 240.53648,89.48639 210.04879,74.89375 185.78415,66.993334 157.50511,62.451892 143.10327,60.139047 112.11182,59.261085 97.522309,60.752631 68.882051,63.680645 41.635526,71.036498 13.649772,83.396036 L 1.2862812,88.856207 V 59.96703 31.077852 L 10.060215,26.988087 C 37.103659,14.382418 65.540173,6.2529281 94.286225,2.9093812 110.4579,1.0284016 141.61954,1.6830098 157.50511,4.2374112 c 29.37044,4.7227692 49.29994,11.5370178 92.77867,31.7226578 68.7477,31.917138 139.52162,33.651635 208.93095,5.120392 5.67406,-2.332366 12.62395,-5.40548 15.44421,-6.829142 l 5.12775,-2.588476 v 29.155293 29.155297 l -7.48995,3.473202 c -27.2193,12.622015 -58.91393,21.811025 -84.95736,24.631135 -11.94806,1.29379 -33.36595,1.75552 -43.68369,0.94172 z"
     id="path3705"
     inkscape:connector-curvature="0" />
  <path
     style="fill:#ffffff;stroke-width:0.85599357"
     d="m 342.35204,148.88621 c -22.98209,-1.66083 -47.82663,-7.34658 -72.79653,-16.65971 -4.66135,-1.73856 -17.41492,-7.33356 -28.34128,-12.43332 C 204.01181,102.42933 179.17834,94.845914 147.66118,91.224818 134.24352,89.683224 110.10427,89.491045 96.664235,90.818817 69.312688,93.520939 39.445311,101.73926 11.672155,114.20527 l -10.3858738,4.66171 v -6.41246 -6.41245 l 7.9179406,-3.68934 C 35.225883,90.22802 62.848989,82.02089 90.309613,78.255422 c 13.014247,-1.784546 44.251197,-2.033441 56.923567,-0.453565 11.8142,1.472885 31.5391,5.497967 42.7491,8.723419 14.47865,4.165941 28.22356,9.594239 49.87645,19.697794 35.48206,16.55643 58.73929,23.86217 90.12908,28.31204 12.50791,1.77314 50.77411,1.53516 63.77152,-0.3966 27.13958,-4.03366 52.80721,-11.89928 81.14149,-24.86511 l 4.95807,-2.26882 -0.2501,6.61726 -0.2501,6.61725 -9.84393,4.45814 c -42.38093,19.19357 -84.75361,27.25373 -127.16272,24.18898 z"
     id="path3707"
     inkscape:connector-curvature="0" />
  <path
     style="fill:#ffffff;stroke-width:0.85599357"
     d="M 224.0003,373.98263 C 175.99256,370.73923 129.57215,352.63309 91.165606,322.17087 81.073679,314.16644 60.189496,293.11411 52.654409,283.3496 33.493868,258.51998 19.101082,230.57919 11.033803,202.55127 5.3144006,182.68051 2.191102,163.09911 1.8778586,145.14843 L 1.714278,135.7743 12.642323,130.82705 C 71.780254,104.05466 132.91077,99.302891 191.1379,116.95233 c 16.33781,4.95221 27.985,9.5525 48.54259,19.17288 37.36681,17.48662 62.10055,24.99815 94.58729,28.72575 16.62778,1.90791 46.79427,1.29851 62.91553,-1.27096 23.39299,-3.72847 47.59083,-10.9667 70.19147,-20.9962 8.77777,-3.89532 12.05982,-5.00384 12.26764,-4.14344 0.46614,1.92984 -1.51391,24.85351 -2.94179,34.05807 -6.28107,40.48992 -23.76751,80.11861 -49.66926,112.56315 -8.14659,10.20442 -27.36064,29.2926 -37.72923,37.48207 -39.09034,30.8749 -84.10818,48.15243 -134.21377,51.5103 -14.23757,0.95414 -15.96835,0.95017 -31.08807,-0.0713 z"
     id="path3709"
     inkscape:connector-curvature="0" />
</svg>
