<?xml version="1.0" encoding="UTF-8" standalone="no"?>
<svg
   xmlns:dc="http://purl.org/dc/elements/1.1/"
   xmlns:cc="http://creativecommons.org/ns#"
   xmlns:rdf="http://www.w3.org/1999/02/22-rdf-syntax-ns#"
   xmlns:svg="http://www.w3.org/2000/svg"
   xmlns="http://www.w3.org/2000/svg"
   xmlns:sodipodi="http://sodipodi.sourceforge.net/DTD/sodipodi-0.dtd"
   xmlns:inkscape="http://www.inkscape.org/namespaces/inkscape"
   version="1.1"
   width="481.01276"
   height="481"
   style="fill:none"
   id="svg8"
   sodipodi:docname="dotgrid-21A11-699403.svg"
   inkscape:version="0.92.2 5c3e80d, 2017-08-06">
  <metadata
     id="metadata14">
    <rdf:RDF>
      <cc:Work
         rdf:about="">
        <dc:format>image/svg+xml</dc:format>
        <dc:type
           rdf:resource="http://purl.org/dc/dcmitype/StillImage" />
      </cc:Work>
    </rdf:RDF>
  </metadata>
  <defs
     id="defs12" />
  <sodipodi:namedview
     pagecolor="#ffffff"
     bordercolor="#666666"
     borderopacity="1"
     objecttolerance="10"
     gridtolerance="10"
     guidetolerance="10"
     inkscape:pageopacity="0"
     inkscape:pageshadow="2"
     inkscape:window-width="1613"
     inkscape:window-height="872"
     id="namedview10"
     showgrid="false"
     inkscape:zoom="0.98538751"
     inkscape:cx="165.77253"
     inkscape:cy="228.59317"
     inkscape:window-x="0"
     inkscape:window-y="0"
     inkscape:window-maximized="0"
     inkscape:current-layer="svg8" />
  <path
     style="fill:#ffffff;stroke-width:1.01482916"
     d="M 335.95938,103.41359 C 303.22205,98.776198 279.42334,92.166381 254.4235,80.767937 248.47603,78.056244 237.67318,73.114366 230.41715,69.785986 194.02518,53.092788 159.08563,45.068404 121.61328,44.797563 c -13.33537,-0.09638 -17.17771,-0.406292 -16.23727,-1.309632 2.78555,-2.675645 21.31308,-13.262586 32.69168,-18.680574 21.38024,-10.180326 43.88619,-17.1166122 67.82852,-20.9046057 15.84333,-2.5066246 53.50424,-2.5164522 69.16544,-0.018049 43.13536,6.8813017 82.96851,24.4211707 115.69851,50.9459197 9.27593,7.517315 29.81741,27.979688 35.80803,35.670125 l 3.28838,4.22145 -10.92216,2.597252 c -21.32896,5.071951 -28.91836,5.931381 -55.06723,6.235871 -13.67482,0.15925 -26.23333,0.0955 -27.9078,-0.14173 z"
     id="path3705"
     inkscape:connector-curvature="0" />
  <path
     style="fill:#ffffff;stroke-width:1.01482916"
     d="m 342.55577,208.98711 c -39.71708,-4.65224 -63.57298,-11.53056 -100.9755,-29.11406 -48.87877,-22.97866 -84.76787,-31.29304 -128.88331,-29.85822 -32.237009,1.04848 -63.583619,8.06435 -94.231666,21.09056 -3.825997,1.62615 -7.104999,2.95663 -7.286671,2.95663 -1.4137493,0 7.302783,-22.73924 14.41817,-37.61338 l 6.584754,-13.76489 9.812833,-3.19766 c 41.250808,-13.44221 81.68854,-16.36268 122.41417,-8.84093 24.96703,4.61124 45.60156,11.62451 75.14206,25.5393 46.53242,21.91868 78.7315,29.84076 121.27209,29.8371 20.29445,-0.002 34.38958,-1.52168 53.78594,-5.79995 11.71719,-2.58446 33.11787,-9.12336 41.20598,-12.59033 l 4.33233,-1.85705 3.09503,8.10505 c 5.12769,13.42808 9.49199,28.42724 8.54655,29.37268 -1.64331,1.64332 -22.65269,10.00956 -35.24713,14.03593 -24.7152,7.9013 -44.68969,11.19333 -71.15197,11.72666 -10.60497,0.21374 -20.88011,0.20139 -22.83366,-0.0274 z"
     id="path3707"
     inkscape:connector-curvature="0" />
  <path
     style="fill:#ffffff;stroke-width:1.01482916"
     d="M 216.71695,478.39351 C 172.58714,473.98157 125.94575,454.89728 91.38555,427.11155 73.04689,412.36763 53.977486,391.43206 40.682219,371.4463 17.59181,336.73625 1.5731673,285.72169 1.5731673,246.89573 v -5.97046 l 7.8649261,-3.59396 C 50.655893,218.49639 87.773405,210.57228 128.42681,211.92875 c 39.39119,1.31435 69.55195,9.4357 114.6757,30.87858 29.92794,14.2218 54.09448,21.68877 86.7679,26.80954 12.80168,2.00635 50.26121,1.69441 64.94906,-0.54086 24.67591,-3.7553 53.20847,-12.37013 76.51041,-23.10078 l 8.51685,-3.92205 -0.70846,11.41803 c -3.01809,48.64111 -19.04923,92.13197 -48.53672,131.67528 -8.67149,11.62864 -32.67933,35.86193 -43.94561,44.3583 -50.02364,37.72491 -109.74732,54.90645 -169.93899,48.88872 z"
     id="path3709"
     inkscape:connector-curvature="0" />
</svg>
