<svg xmlns="http://www.w3.org/2000/svg" baseProfile="full" version="1.1" width="1860px" height="825px" style="fill: none; width: 1860px; height: 825px;"><path d="" style="stroke-width: 5; stroke-linecap: round; stroke-linejoin: round; stroke: rgb(255, 255, 255); fill: rgb(255, 255, 255);"/><path d="" style="stroke-width: 1; stroke-linecap: round; stroke-linejoin: bevel; stroke: rgb(74, 74, 74); fill: rgb(74, 74, 74);"/><path d="M600,420 Q720,360 840,420 Q960,480 1080,420 M600,420 L600,420 L600,600 L600,600 L1080,600 L1080,600 L1080,420 M600,390 Q720,330 840,390 Q960,450 1080,390 M600,390 L600,390 L600,360 M1080,390 L1080,390 L1080,360 M600,360 Q720,300 840,360 Q960,420 1080,360 M600,330 Q720,270 840,330 Q960,390 1080,330 M600,330 L600,330 L600,285 M1080,330 L1080,330 L1080,285 M600,285 Q720,225 840,285 Q960,345 1080,285 M600,135 L600,135 L600,255 M1080,255 L1080,255 L1080,135 L1080,135 L600,135 M600,255 Q720,195 840,255 Q960,315 1080,255 " style="stroke-width: 6; stroke-linecap: round; stroke-linejoin: round; stroke: rgb(0, 0, 0); fill: none;"/></svg>