<?xml version="1.0" encoding="UTF-8" standalone="no"?>
<svg
   xmlns:dc="http://purl.org/dc/elements/1.1/"
   xmlns:cc="http://creativecommons.org/ns#"
   xmlns:rdf="http://www.w3.org/1999/02/22-rdf-syntax-ns#"
   xmlns:svg="http://www.w3.org/2000/svg"
   xmlns="http://www.w3.org/2000/svg"
   xmlns:sodipodi="http://sodipodi.sourceforge.net/DTD/sodipodi-0.dtd"
   xmlns:inkscape="http://www.inkscape.org/namespaces/inkscape"
   version="1.1"
   width="486.08096"
   height="471.04272"
   style="fill:none"
   id="svg8"
   sodipodi:docname="idea2.svg"
   inkscape:version="0.92.2 5c3e80d, 2017-08-06">
  <metadata
     id="metadata14">
    <rdf:RDF>
      <cc:Work
         rdf:about="">
        <dc:format>image/svg+xml</dc:format>
        <dc:type
           rdf:resource="http://purl.org/dc/dcmitype/StillImage" />
      </cc:Work>
    </rdf:RDF>
  </metadata>
  <defs
     id="defs12" />
  <sodipodi:namedview
     pagecolor="#ffffff"
     bordercolor="#666666"
     borderopacity="1"
     objecttolerance="10"
     gridtolerance="10"
     guidetolerance="10"
     inkscape:pageopacity="0"
     inkscape:pageshadow="2"
     inkscape:window-width="1658"
     inkscape:window-height="908"
     id="namedview10"
     showgrid="false"
     inkscape:zoom="1.0079515"
     inkscape:cx="225.8769"
     inkscape:cy="262.60767"
     inkscape:window-x="0"
     inkscape:window-y="0"
     inkscape:window-maximized="0"
     inkscape:current-layer="svg8" />
  <g
     id="g4566"
     style="display:none">
    <path
       inkscape:connector-curvature="0"
       id="path3731"
       d="m 3.0427275,288.04273 q 120.0000025,-60 240.0000025,0 120,60 240,0"
       style="opacity:1;fill:none;stroke:#000000;stroke-width:1;stroke-linecap:round;stroke-linejoin:round;stroke-miterlimit:4;stroke-dasharray:none;stroke-dashoffset:0" />
    <path
       inkscape:connector-curvature="0"
       id="path3729"
       d="m 3.0427275,288.04273 v 0 180 0 H 483.04273 v 0 -180"
       style="opacity:1;fill:none;stroke:#000000;stroke-width:1;stroke-linecap:round;stroke-linejoin:round;stroke-miterlimit:4;stroke-dasharray:none;stroke-dashoffset:0" />
    <path
       inkscape:connector-curvature="0"
       id="path3719"
       d="m 3.0427275,258.04273 q 120.0000025,-60 240.0000025,0 120,60 240,0"
       style="opacity:1;fill:none;stroke:#000000;stroke-width:1;stroke-linecap:round;stroke-linejoin:round;stroke-miterlimit:4;stroke-dasharray:none;stroke-dashoffset:0" />
    <path
       inkscape:connector-curvature="0"
       id="path3717"
       d="m 3.0427275,258.04273 v 0 -105"
       style="opacity:1;fill:none;stroke:#000000;stroke-width:1;stroke-linecap:round;stroke-linejoin:round;stroke-miterlimit:4;stroke-dasharray:none;stroke-dashoffset:0" />
    <path
       inkscape:connector-curvature="0"
       id="path3715"
       d="m 483.04273,258.04273 v 0 -105"
       style="opacity:1;fill:none;stroke:#000000;stroke-width:1;stroke-linecap:round;stroke-linejoin:round;stroke-miterlimit:4;stroke-dasharray:none;stroke-dashoffset:0" />
    <path
       inkscape:connector-curvature="0"
       id="path3713"
       d="m 3.0427275,153.04273 q 120.0000025,-60.000002 240.0000025,0 120,60 240,0"
       style="opacity:1;fill:none;stroke:#000000;stroke-width:1;stroke-linecap:round;stroke-linejoin:round;stroke-miterlimit:4;stroke-dasharray:none;stroke-dashoffset:0" />
    <path
       inkscape:connector-curvature="0"
       id="path3711"
       d="m 3.0427275,3.0427275 v 0 120.0000025"
       style="opacity:1;fill:none;stroke:#000000;stroke-width:1;stroke-linecap:round;stroke-linejoin:round;stroke-miterlimit:4;stroke-dasharray:none;stroke-dashoffset:0" />
    <path
       inkscape:connector-curvature="0"
       id="path3709"
       d="m 483.04273,123.04273 v 0 -120.0000025 0 H 3.0427275"
       style="opacity:1;fill:none;stroke:#000000;stroke-width:1;stroke-linecap:round;stroke-linejoin:round;stroke-miterlimit:4;stroke-dasharray:none;stroke-dashoffset:0" />
    <path
       inkscape:connector-curvature="0"
       id="path6"
       d="m 3.0427275,123.04273 q 120.0000025,-60.000003 240.0000025,0 120,60 240,0"
       style="opacity:1;fill:none;stroke:#000000;stroke-width:1;stroke-linecap:round;stroke-linejoin:round;stroke-miterlimit:4;stroke-dasharray:none;stroke-dashoffset:0" />
    <path
       inkscape:connector-curvature="0"
       id="path3733"
       d="M 7.0831436,377.66081 V 290.27916 L 17.99361,285.25111 c 51.548026,-23.7557 110.98818,-29.47049 164.40944,-15.80689 21.02419,5.37737 28.96276,8.33885 59.2039,22.086 49.14539,22.34073 78.8707,29.586 121.38313,29.586 37.59825,0 67.96563,-6.34699 103.46132,-21.62414 l 13.16781,-5.66735 v 85.60887 85.60886 H 243.35118 7.0831436 Z"
       style="fill:#ffffff;stroke-width:1;stroke-miterlimit:4;stroke-dasharray:none;stroke-dashoffset:0" />
    <path
       inkscape:connector-curvature="0"
       id="path3735"
       d="M 7.0831436,377.78408 V 290.5257 l 7.1482364,-3.60208 c 30.2175,-15.22696 72.685845,-24.98643 108.72844,-24.98643 39.1533,0 73.74761,8.48723 116.89667,28.67899 41.63279,19.48221 67.99321,27.00364 105.23989,30.02817 39.43388,3.20212 82.11308,-4.22454 121.25579,-21.09989 l 13.26704,-5.71973 v 85.60887 85.60886 H 243.35118 7.0831436 Z"
       style="fill:#ffffff;stroke-width:1;stroke-miterlimit:4;stroke-dasharray:none;stroke-dashoffset:0" />
  </g>
  <path
     style="fill:#ffffff;stroke-width:0.99211121;stroke-miterlimit:4;stroke-dasharray:none;stroke-dashoffset:0"
     d="M 342.7476,151.29339 C 306.05511,147.00102 280.43012,139.57289 245.5207,123.10943 211.2638,106.9537 191.21027,100.27211 161.59094,95.145045 144.21113,92.136631 104.15449,91.871346 87.27896,94.652897 63.139539,98.631737 40.343997,105.40619 16.766458,115.60803 L 4.4376744,120.94261 V 62.501379 4.0601444 H 243.04042 481.64317 V 63.459434 122.85873 l -10.16914,4.5343 c -37.58967,16.76083 -66.39774,23.40848 -103.92365,23.98108 -11.73172,0.17902 -22.89297,0.14269 -24.80278,-0.0807 z"
     id="path4578"
     inkscape:connector-curvature="0" />
  <path
     style="fill:#ffffff;stroke-width:0.99211121;stroke-miterlimit:4;stroke-dasharray:none;stroke-dashoffset:0"
     d="m 337.35526,285.71844 c -19.63331,-2.06859 -47.06069,-8.84743 -66.23382,-16.37009 -5.077,-1.99199 -16.62419,-7.10674 -25.66043,-11.36612 -28.46547,-13.41767 -48.50649,-20.58203 -70.65699,-25.25884 -52.82713,-11.15378 -108.742412,-4.76762 -158.446526,18.09642 -4.100426,1.88621 -8.4598318,3.82503 -9.6875694,4.30847 l -2.2322502,0.879 v -51.43553 -51.43552 l 12.9432676,-5.661 c 38.321504,-16.76069 75.784662,-24.36378 113.550908,-23.04498 40.02944,1.39783 70.57277,9.76046 117.56518,32.18882 24.4348,11.66214 48.72587,19.48519 74.9044,24.1233 16.97385,3.00729 49.66343,3.72287 67.95962,1.48763 27.44534,-3.35297 55.99561,-11.51263 81.80295,-23.37925 l 8.47917,-3.89886 v 51.4063 51.4063 l -8.18492,3.74284 c -28.24071,12.91406 -58.73286,21.5264 -85.92273,24.26839 -11.80598,1.19059 -38.62712,1.15997 -50.18026,-0.0572 z"
     id="path4580"
     inkscape:connector-curvature="0" />
  <path
     style="fill:#ffffff;stroke-width:0.99211121;stroke-miterlimit:4;stroke-dasharray:none;stroke-dashoffset:0"
     d="m 4.4376744,377.78155 v -89.59452 l 9.6730846,-4.31454 c 26.678814,-11.89968 51.838838,-19.26481 78.624813,-23.01595 13.839048,-1.93803 50.267378,-1.66886 63.858098,0.47185 30.7099,4.8372 53.552,12.18752 86.93077,27.9733 44.38805,20.99239 77.90937,29.25771 118.65924,29.25771 26.15398,0 47.32828,-2.965 71.83815,-10.05938 10.89774,-3.15434 34.82971,-12.28111 42.90881,-16.36383 l 4.71253,-2.38144 v 88.81066 88.81067 H 243.04042 4.4376744 Z"
     id="path4582"
     inkscape:connector-curvature="0" />
</svg>
