<?xml version="1.0" encoding="UTF-8" standalone="no"?>
<svg
   xmlns:dc="http://purl.org/dc/elements/1.1/"
   xmlns:cc="http://creativecommons.org/ns#"
   xmlns:rdf="http://www.w3.org/1999/02/22-rdf-syntax-ns#"
   xmlns:svg="http://www.w3.org/2000/svg"
   xmlns="http://www.w3.org/2000/svg"
   xmlns:sodipodi="http://sodipodi.sourceforge.net/DTD/sodipodi-0.dtd"
   xmlns:inkscape="http://www.inkscape.org/namespaces/inkscape"
   version="1.1"
   width="481.01276"
   height="481"
   style="fill:none"
   id="svg8"
   sodipodi:docname="dotgrid-21A11-667232.svg"
   inkscape:version="0.92.2 5c3e80d, 2017-08-06">
  <metadata
     id="metadata14">
    <rdf:RDF>
      <cc:Work
         rdf:about="">
        <dc:format>image/svg+xml</dc:format>
        <dc:type
           rdf:resource="http://purl.org/dc/dcmitype/StillImage" />
      </cc:Work>
    </rdf:RDF>
  </metadata>
  <defs
     id="defs12" />
  <sodipodi:namedview
     pagecolor="#ffffff"
     bordercolor="#666666"
     borderopacity="1"
     objecttolerance="10"
     gridtolerance="10"
     guidetolerance="10"
     inkscape:pageopacity="0"
     inkscape:pageshadow="2"
     inkscape:window-width="1584"
     inkscape:window-height="864"
     id="namedview10"
     showgrid="false"
     inkscape:zoom="1.03"
     inkscape:cx="210.11803"
     inkscape:cy="203"
     inkscape:window-x="0"
     inkscape:window-y="0"
     inkscape:window-maximized="0"
     inkscape:current-layer="svg8" />
  <path
     d="M 0.50637471,225.5 A 240,225 0 0 1 240.50637,0.5 a 240,225 0 0 1 240,225 m -479.99999529,0 q 119.99999529,-60 239.99999529,0 120,60 240,0 m -479.99999529,15 q 119.99999529,-60 239.99999529,0 120,60 240,0 m -479.99999529,0 v 0 15 q 119.99999529,-60 239.99999529,0 120,60 240,0 m -479.99999529,15 q 119.99999529,-60 239.99999529,0 120,60 240,0 m 0,-15 v 0 -15 m -479.99999529,30 a 240,210 0 0 0 239.99999529,210 240,210 0 0 0 240,-210"
     style="display:none;fill:#ffffff;stroke:#000000;stroke-width:1;stroke-linecap:round;stroke-linejoin:round"
     id="path6"
     inkscape:connector-curvature="0" />
  <path
     style="fill:#ffffff;stroke-width:0.97087377"
     d="m 346.4287,283.93287 c -34.50386,-1.82413 -65.354,-10.37009 -104.85767,-29.04719 -43.12154,-20.38761 -74.65342,-28.65978 -113.60156,-29.80258 -21.94617,-0.64393 -35.715829,0.4751 -56.298047,4.57525 -20.583143,4.10033 -48.710757,13.55781 -65.2526011,21.9402 l -4.6503113,2.35649 v -6.6399 -6.6399 l 12.4392284,-5.49401 c 15.599515,-6.8898 37.930856,-14.32839 53.061688,-17.6749 19.742635,-4.3665 31.407433,-5.59069 53.431123,-5.60749 23.3758,-0.0178 39.3995,1.95505 61.02483,7.51356 20.65903,5.31013 31.66111,9.56519 66.37331,25.66991 26.80839,12.43777 50.38263,19.62396 78.91254,24.05512 15.63997,2.42914 51.35032,2.42914 66.99029,0 27.71616,-4.30477 52.2031,-11.75856 79.85437,-24.30758 l 5.58252,-2.53352 v 6.35474 6.35475 l -9.12514,4.23527 c -40.1315,18.6263 -81.74179,26.91976 -123.88457,24.69178 z"
     id="path16"
     inkscape:connector-curvature="0" />
  <path
     style="fill:#ffffff;stroke-width:0.97087377"
     d="m 348.37045,254.31756 c -24.43169,-2.03967 -39.68693,-4.76439 -59.46747,-10.62139 -12.98287,-3.84421 -31.99885,-11.27301 -43.44515,-16.97233 -41.61633,-20.7215 -77.30134,-30.39202 -116.99029,-31.70401 -39.946625,-1.3205 -76.149832,6.13846 -116.262136,23.95352 l -10.4368934,4.63533 v -6.63811 c 0,-3.65096 0.6694048,-11.79398 1.4875662,-18.0956 C 10.291749,144.685 37.986162,94.920633 81.337745,58.569247 172.58547,-17.944257 311.19157,-17.274029 401.44787,60.117134 c 24.23974,20.784601 42.33736,43.966036 56.17917,71.960536 12.77066,25.82811 21.77045,61.58907 21.80341,86.6365 l 0.008,6.054 -5.58252,2.7919 c -23.0521,11.5287 -55.6874,21.42125 -81.86311,24.8147 -11.49369,1.49005 -35.98176,2.58067 -43.62233,1.94279 z"
     id="path18"
     inkscape:connector-curvature="0" />
  <path
     style="fill:#ffffff;stroke-width:0.97087377"
     d="M 208.56463,477.62333 C 100.8846,464.76275 16.67352,390.0916 3.2368797,295.55635 2.4488418,290.01201 1.7960797,282.13664 1.7862971,278.05553 l -0.017787,-7.4202 10.4368939,-4.59267 C 69.205398,240.96024 121.8424,235.23609 176.52579,248.17321 c 21.84878,5.16903 35.46907,10.15001 63.8546,23.35181 10.28994,4.78573 22.53766,10.17998 27.21719,11.98721 18.66665,7.20907 42.39749,13.27669 63.29714,16.18414 13.16351,1.83124 49.06679,1.56603 62.43223,-0.46117 24.79015,-3.76005 51.63159,-11.52202 72.51923,-20.971 6.14078,-2.77792 11.71117,-5.28752 12.37864,-5.57689 1.64554,-0.71338 1.57041,6.91078 -0.19906,20.20236 -5.75457,43.22607 -24.13651,80.40131 -55.79528,112.83916 -13.12297,13.44592 -22.54548,21.27418 -37.8264,31.42634 -32.83266,21.81297 -71.50335,35.65524 -113.25206,40.53884 -15.49548,1.81261 -47.11789,1.77689 -62.58739,-0.0707 z"
     id="path20"
     inkscape:connector-curvature="0" />
</svg>
